<?xml version="1.0" encoding="UTF-8"?>
<svg width="28px" height="25px" viewBox="0 0 28 25" version="1.1" xmlns="http://www.w3.org/2000/svg" xmlns:xlink="http://www.w3.org/1999/xlink">
    <!-- Generator: Sketch 51.3 (57544) - http://www.bohemiancoding.com/sketch -->
    <title>speaking mic</title>
    <desc>Created with Sketch.</desc>
    <defs></defs>
    <g id="Mockups---Basic" stroke="none" stroke-width="1" fill="none" fill-rule="evenodd">
        <g id="Session-admin---managing-a-call---minimalist" transform="translate(-894.000000, -459.000000)">
            <rect fill="#FFFFFF" x="0" y="0" width="1440" height="900"></rect>
            <g id="Group-3" transform="translate(894.000000, 459.000000)" fill="#0BCED0" fill-rule="nonzero">
                <g id="speaking-mic">
                    <path d="M19.3551319,13.3291536 C19.4019331,15.2926801 18.3916103,17.1276265 16.7154769,18.1232903 C15.0393434,19.118954 12.9606566,19.118954 11.2845231,18.1232903 C9.60838974,17.1276265 8.59806694,15.2926801 8.6448681,13.3291536 L8.6448681,8 L7,8 L7,13.3291536 C7.00478324,16.9115596 9.65749233,19.9260957 13.1791177,20.3510972 L13.1791177,23.338558 L9.36488583,23.338558 L9.36488583,25 L18.6320106,25 L18.6320106,23.338558 L14.8208823,23.338558 L14.8208823,20.3510972 C18.3425077,19.9260957 20.9952168,16.9115596 21,13.3291536 L21,8 L19.3551319,8 L19.3551319,13.3291536 Z" id="Shape"></path>
                    <path d="M14,17 C16.209139,17 18,15.1702072 18,12.9130435 L18,4.08695652 C18,1.82979276 16.209139,0 14,0 C11.790861,0 10,1.82979276 10,4.08695652 L10,12.9130435 C10,15.1702072 11.790861,17 14,17 Z" id="Shape"></path>
                    <path d="M4.11061825,5 C2.62979392,6.65861528 2.62979392,9.34138472 4.11061825,11 L5,10.0014903 C4.01002744,8.89585549 4.01002744,7.10414451 5,5.99850969 L4.11061825,5 Z" id="Shape"></path>
                    <path d="M3,3.99821216 L2.0329962,3 C0.731709663,4.32333172 2.58696357e-16,6.12291616 0,8 C-2.58696357e-16,9.87708384 0.731709663,11.6766683 2.0329962,13 L3,11.9928486 C0.846582683,9.78326687 0.846582683,6.20779392 3,3.99821216 Z" id="Shape"></path>
                    <path d="M23.8881945,5 L23,5.99850969 C23.988651,7.10414451 23.988651,8.89585549 23,10.0014903 L23.893529,11 C25.3709028,9.33974327 25.3685176,6.65697288 23.8881945,5 Z" id="Shape"></path>
                    <path d="M25.972908,3 L25,3.99821216 C27.1548964,6.20916417 27.1548964,9.79381557 25,12.0047676 L25.972908,13 C27.2704154,11.6766683 28,9.87708384 28,8 C28,6.12291616 27.2704154,4.32333172 25.972908,3 Z" id="Shape"></path>
                </g>
            </g>
        </g>
    </g>
</svg>